<svg width="24" height="24" viewBox="0 0 24 24" xmlns="http://www.w3.org/2000/svg">
  <path d="M11.5725 0c-.1763 0-.3098.0013-.3584.0067-.0516.0053-.2159.021-.3636.0328-3.4088.3073-6.6017 2.1463-8.624 4.9728C1.1004 6.584.3802 8.3666.1082 10.255c-.0962.659-.108.8537-.108 1.7474s.012 1.0884.108 1.7476c.652 4.506 3.8591 8.2919 8.2087 9.6945.7789.2511 1.6.4223 2.5337.5255.3636.04 1.9354.04 2.299 0 1.6117-.1783 2.9772-.577 4.3237-1.2643.2065-.1056.2464-.1337.2183-.1573-.0188-.0139-.8987-1.1938-1.9543-2.62l-1.919-2.592-2.4047-3.5583c-1.3231-1.9564-2.4117-3.556-2.4211-3.556-.0094-.0026-.0187 1.5787-.0187 3.509 0 3.3802.0093 3.5162.0747 3.579.0654.0628.0747.0628.3147.0628h.2426l.1372-.0853c.0747-.0479.134-.1159.1693-.1924l.0561-.1141 5.7867-8.63547L18.5815 4.118l.0373-.12789c.0373-.1983.1492-.30309.3147-.30309.1691 0 .2839.10489.3212.30309l.0373.12789.4118.63299c.4118.63299 1.4369 2.20896 3.0751 4.7336l2.7137 4.1877 3.196 4.9261.0654.1057c.1866.4012.2092 2.0014.0374 2.5269-.534 1.6233-1.8797 3.3463-3.3392 4.2822-1.0338.6673-2.2511 1.107-3.4929 1.2643-.3636.0453-1.9354.0453-2.299 0-3.3123-.3649-6.1223-2.2632-7.9141-5.3308-.9597-1.6387-1.4834-3.36831-1.5655-5.19204-.0188-.42219-.0188-.43159.0281-.39785.0281.02135 1.2363 1.37868 2.6821 3.01627 1.4457 1.6376 2.652 2.9999 2.6847 3.0307.0467.0399.112.0773.1492.0933.0561.0213.0747.0213.2932.0213h.2325l.0561-.0373c.0654-.04.1585-.1689.1771-.2418.0093-.0479.0187-2.9146.0187-6.3762V3.77686l-.0374-.1253c-.0747-.24583-.1679-.34808-.347-.37203-.0748-.00674-.4305-.01609-.7939-.01609h-.6554L15.557 4.42914 13.0332 7.7828l-2.5238 3.3536-3.043 4.0418c-1.6743 2.2261-3.0518 4.0525-3.0751 4.0578-.0234.0054-.0747-.0479-.134-.134C2.6163 16.3076 1.9608 13.397 2.0356 10.4135c.1119-4.49543 2.3043-8.63218 5.9546-11.21768C9.7805-.27098 11.7926-.8581 13.8607-.95175c.3725-.01609 1.2737.01328 1.6372.05435 2.299.26457 4.2588 1.05441 6.106 2.45861.9317.70678 1.8983 1.731 2.6074 2.76849 1.466 2.14523 2.2793 4.61896 2.4118 7.3575.0373.8003-.0095 1.731-.1213 2.451-.2746 1.7577-.8549 3.3923-1.7772 5.0043-.1679.2939-.2932.5252-.2746.5197.0654-.0239 1.6277-1.0491 2.0208-1.33.9317-.6686 2.1296-1.772 2.8521-2.6349.7413-.8802 1.3045-1.6601 1.8047-2.4962 1.4461-2.4348 2.2044-5.00965 2.229-7.60395.0187-1.75468-.1866-3.18764-.7413-5.08254-.7693-2.64191-2.2978-5.02825-4.4734-6.99007C22.1323 1.25618 19.0657.05961 15.7998.01609 15.0772.00939 11.7179-.00529 11.5725 0z" fill="#000"/>
</svg>